<svg xmlns="http://www.w3.org/2000/svg" version="1.1" xmlns:xlink="http://www.w3.org/1999/xlink" xmlns:svgjs="http://svgjs.dev/svgjs" width="1000" height="623" viewBox="0 0 1000 623"><g transform="matrix(1,0,0,1,-0.6060606060606233,0.2522267206479114)"><svg viewBox="0 0 396 247" data-background-color="#40e0d0" preserveAspectRatio="xMidYMid meet" height="623" width="1000" xmlns="http://www.w3.org/2000/svg" xmlns:xlink="http://www.w3.org/1999/xlink"><g id="tight-bounds" transform="matrix(1,0,0,1,0.2400000000000091,-0.09999999999999432)"><svg viewBox="0 0 395.52 247.2" height="247.2" width="395.52"><g><svg></svg></g><g><svg viewBox="0 0 395.52 247.2" height="247.2" width="395.52"><g transform="matrix(1,0,0,1,75.54432,66.62106810810809)"><svg viewBox="0 0 244.43135999999998 113.95786378378381" height="113.95786378378381" width="244.43135999999998"><g><svg viewBox="0 0 244.43135999999998 113.95786378378381" height="113.95786378378381" width="244.43135999999998"><g><svg viewBox="0 0 244.43135999999998 113.95786378378381" height="113.95786378378381" width="244.43135999999998"><g><svg viewBox="0 0 244.43135999999998 113.95786378378381" height="113.95786378378381" width="244.43135999999998"><g><svg viewBox="0 0 244.43135999999998 113.95786378378381" height="113.95786378378381" width="244.43135999999998"><g><svg viewBox="0 0 244.43135999999998 113.95786378378381" height="113.95786378378381" width="244.43135999999998"><g transform="matrix(1,0,0,1,0,0)"><svg width="244.43135999999998" viewBox="1.5 -34.04999923706055 74 34.5" height="113.95786378378381" data-palette-color="#ffffff"><path d="M21.2 0.15L21.2 0.15Q21.2-0.75 21.35-1.9 21.5-3.05 21.7-3.75L21.7-3.75Q23.05-3.85 23.75-4.28 24.45-4.7 24.68-5.88 24.9-7.05 24.9-9.35L24.9-9.35 24.9-24.55Q24.9-26.8 24.68-27.9 24.45-29 23.75-29.43 23.05-29.85 21.65-30.05L21.65-30.05Q21.45-30.8 21.33-31.9 21.2-33 21.2-33.95L21.2-33.95Q22.05-33.9 23.7-33.88 25.35-33.85 27.15-33.83 28.95-33.8 30.15-33.8L30.15-33.8Q31.35-33.8 32.95-33.83 34.55-33.85 36.08-33.88 37.6-33.9 38.6-33.95L38.6-33.95Q38.6-32.95 38.55-32 38.5-31.05 38.15-30.05L38.15-30.05Q36.8-29.9 36.1-29.48 35.4-29.05 35.15-27.93 34.9-26.8 34.9-24.55L34.9-24.55 34.9-9.35Q34.9-7.05 35.18-5.88 35.45-4.7 36.15-4.28 36.85-3.85 38.2-3.75L38.2-3.75Q38.4-3.1 38.5-1.98 38.6-0.85 38.6 0.15L38.6 0.15Q37.5 0.05 35.38 0.03 33.25 0 30.65 0L30.65 0Q28.05 0 25.5 0.03 22.95 0.05 21.2 0.15ZM1.5 0.15L1.5 0.15Q1.5-0.75 1.65-1.9 1.8-3.05 2-3.75L2-3.75Q3.35-3.85 4.05-4.28 4.75-4.7 4.98-5.88 5.2-7.05 5.2-9.35L5.2-9.35 5.2-24.55Q5.2-26.8 4.98-27.9 4.75-29 4.05-29.43 3.35-29.85 1.95-30.05L1.95-30.05Q1.75-30.8 1.63-31.9 1.5-33 1.5-33.95L1.5-33.95Q2.35-33.9 4-33.88 5.65-33.85 7.45-33.83 9.25-33.8 10.45-33.8L10.45-33.8Q11.65-33.8 13.25-33.83 14.85-33.85 16.38-33.88 17.9-33.9 18.9-33.95L18.9-33.95Q18.9-32.95 18.85-32 18.8-31.05 18.45-30.05L18.45-30.05Q17.1-29.9 16.4-29.48 15.7-29.05 15.45-27.93 15.2-26.8 15.2-24.55L15.2-24.55 15.2-9.35Q15.2-7.05 15.45-5.88 15.7-4.7 16.43-4.28 17.15-3.85 18.5-3.75L18.5-3.75Q18.7-3.1 18.8-1.98 18.9-0.85 18.9 0.15L18.9 0.15Q17.8 0.05 15.68 0.03 13.55 0 10.95 0L10.95 0Q8.35 0 5.8 0.03 3.25 0.05 1.5 0.15ZM15-15L15-15 15-19.45 25.2-19.45 25.2-15.5Q23.95-15.5 22.6-15.48 21.25-15.45 19.9-15.4 18.55-15.35 17.3-15.25 16.05-15.15 15-15ZM63.75 0.45L63.75 0.45Q63.25-0.75 62.75-2 62.25-3.25 61.75-4.58 61.25-5.9 60.75-7.2L60.75-7.2Q60.05-9.05 59.47-10.2 58.9-11.35 58.22-12.08 57.55-12.8 56.55-13.35L56.55-13.35 59.15-13.05Q57.75-13 56.77-12.98 55.8-12.95 54.4-13L54.4-13 54.9-17.1Q55.7-16.95 56.07-16.9 56.45-16.85 56.8-16.85L56.8-16.85Q58.25-16.85 59.55-17.57 60.85-18.3 61.7-19.78 62.55-21.25 62.55-23.45L62.55-23.45Q62.55-26.7 61.15-28.48 59.75-30.25 57.4-30.25L57.4-30.25Q56.75-30.25 56.15-30.13 55.55-30 54.9-29.75L54.9-29.75 55.3-31.8 55.3-9.85Q55.3-7.15 55.55-5.85 55.8-4.55 56.32-4.17 56.85-3.8 57.75-3.75L57.75-3.75Q57.95-3.25 58.02-2.1 58.1-0.95 58.1 0.15L58.1 0.15Q57.15 0.1 55.55 0.08 53.95 0.05 52.25 0.03 50.55 0 49.35 0L49.35 0Q47.35 0 45.35 0.03 43.35 0.05 41.6 0.15L41.6 0.15Q41.6-1.15 41.7-2.1 41.8-3.05 42-3.75L42-3.75Q43.35-3.85 44.07-4.28 44.8-4.7 45.05-5.88 45.3-7.05 45.3-9.35L45.3-9.35 45.3-24.65Q45.3-26.9 45.05-28 44.8-29.1 44.07-29.53 43.35-29.95 41.95-30.15L41.95-30.15Q41.75-30.9 41.67-32.2 41.6-33.5 41.6-34L41.6-34Q43.1-33.95 45.35-33.88 47.6-33.8 50.2-33.8L50.2-33.8Q51.65-33.8 54.5-33.93 57.35-34.05 60.55-34.05L60.55-34.05Q64.9-34.05 67.65-32.77 70.4-31.5 71.7-29.35 73-27.2 73-24.65L73-24.65Q73-21.3 71.8-18.98 70.6-16.65 68.55-15.4 66.5-14.15 63.95-13.9L63.95-13.9 65.15-14.55Q66.65-14.15 67.57-13.48 68.5-12.8 69.37-11.38 70.25-9.95 71.6-7.2L71.6-7.2Q72.25-5.95 72.77-5.25 73.3-4.55 73.92-4.28 74.55-4 75.5-3.9L75.5-3.9Q75.5-2.8 75.35-1.85 75.2-0.9 74.95 0L74.95 0Q71 0 68.12 0.1 65.25 0.2 63.75 0.45Z" opacity="1" transform="matrix(1,0,0,1,0,0)" fill="#ffffff" class="undefined-text-0" data-fill-palette-color="primary" id="text-0"></path></svg></g></svg></g></svg></g></svg></g></svg></g></svg></g></svg></g><g><path d="M245.816 0c68.262 0 123.6 55.338 123.6 123.6 0 68.262-55.338 123.6-123.6 123.6-42.088 0-79.263-21.037-101.584-53.17l6.323 0c21.581 29.141 56.214 48.031 95.261 48.032 65.425 0 118.462-53.037 118.461-118.462 0-65.425-53.037-118.462-118.461-118.462-39.046 0-73.68 18.891-95.261 48.032h-6.323c22.32-32.133 59.495-53.17 101.584-53.17z" fill="#ffffff" stroke="transparent" data-fill-palette-color="tertiary"></path></g></svg></g><defs></defs></svg><rect width="395.52" height="247.2" fill="none" stroke="none" visibility="hidden"></rect></g></svg></g></svg>